<svg id="Logos" xmlns="http://www.w3.org/2000/svg" viewBox="0 0 430.04 198"><defs><style>.cls-1{fill:#47565b;}.cls-2{fill:#a9c23f;}</style></defs><path class="cls-1" d="M92.72,150.22a3.58,3.58,0,0,1,.88-2.47,3.37,3.37,0,0,1,2.65-1,3.46,3.46,0,0,1,2.67,1,3.51,3.51,0,0,1,.91,2.47,3.29,3.29,0,0,1-.91,2.38,3.52,3.52,0,0,1-2.67,1,3.43,3.43,0,0,1-2.65-1A3.35,3.35,0,0,1,92.72,150.22Z"/><path class="cls-1" d="M92.75,131.4a3.61,3.61,0,0,1,.88-2.47,3.37,3.37,0,0,1,2.65-1,3.28,3.28,0,0,1,3.58,3.46,3.29,3.29,0,0,1-.91,2.38,3.52,3.52,0,0,1-2.67,1,3.18,3.18,0,0,1-3.53-3.34Z"/><path class="cls-1" d="M59.82,129.16A17.65,17.65,0,0,0,57,129q-5.62,0-7.64,4.79v23.73H43.66V124h5.56l.09,3.87a8.91,8.91,0,0,1,8-4.49,5.8,5.8,0,0,1,2.53.44Z"/><path class="cls-1" d="M76.17,158.09a14.62,14.62,0,0,1-11.06-4.46q-4.28-4.47-4.27-11.95v-1.05a20.19,20.19,0,0,1,1.9-8.89,14.92,14.92,0,0,1,5.32-6.12,13.36,13.36,0,0,1,7.4-2.21q6.53,0,10.14,4.3T89.21,140v2.38H66.56a11.89,11.89,0,0,0,2.89,8,9.07,9.07,0,0,0,7,3,10,10,0,0,0,5.13-1.23,13,13,0,0,0,3.68-3.28l3.49,2.72Q84.58,158.1,76.17,158.09Zm-.71-30a7.63,7.63,0,0,0-5.81,2.52,12.27,12.27,0,0,0-2.91,7.06H83.5v-.43a10.89,10.89,0,0,0-2.35-6.75A7.18,7.18,0,0,0,75.46,128.11Z"/><path class="cls-1" d="M102.92,140.47q0-7.82,3.62-12.44a12.46,12.46,0,0,1,19.13-.29L126,124h5.22v32.64q0,6.5-3.84,10.23T117,170.64a17.23,17.23,0,0,1-7.08-1.55,12.22,12.22,0,0,1-5.29-4.23l3-3.43a11.17,11.17,0,0,0,9,4.54,8.75,8.75,0,0,0,6.51-2.35,8.94,8.94,0,0,0,2.33-6.61v-2.87a11.75,11.75,0,0,1-9.36,4,11.42,11.42,0,0,1-9.5-4.73Q102.92,148.64,102.92,140.47Zm5.75.65c0,3.77.78,6.74,2.32,8.89a7.55,7.55,0,0,0,6.49,3.23,8.37,8.37,0,0,0,7.94-4.91V133.06a8.46,8.46,0,0,0-7.88-4.79,7.61,7.61,0,0,0-6.52,3.24C109.45,133.67,108.67,136.88,108.67,141.12Z"/><path class="cls-1" d="M151.45,158.09a14.62,14.62,0,0,1-11.06-4.46q-4.27-4.47-4.27-11.95v-1.05a20,20,0,0,1,1.9-8.89,14.92,14.92,0,0,1,5.32-6.12,13.36,13.36,0,0,1,7.4-2.21q6.52,0,10.14,4.3t3.61,12.3v2.38H141.84a11.84,11.84,0,0,0,2.89,8,9.07,9.07,0,0,0,7,3,10,10,0,0,0,5.13-1.23,13,13,0,0,0,3.68-3.28l3.49,2.72Q159.86,158.1,151.45,158.09Zm-.71-30a7.61,7.61,0,0,0-5.81,2.52,12.27,12.27,0,0,0-2.91,7.06h16.76v-.43a10.89,10.89,0,0,0-2.35-6.75A7.18,7.18,0,0,0,150.74,128.11Z"/><path class="cls-1" d="M174.58,124l.18,4.21a12.2,12.2,0,0,1,10-4.83q10.6,0,10.69,12v22.1h-5.72V135.34q0-3.61-1.65-5.34c-1.08-1.16-2.77-1.73-5-1.73a8.27,8.27,0,0,0-4.89,1.48,10.09,10.09,0,0,0-3.27,3.89v23.83h-5.72V124Z"/><path class="cls-1" d="M215.62,158.09a14.64,14.64,0,0,1-11.07-4.46q-4.26-4.47-4.26-11.95v-1.05a20,20,0,0,1,1.9-8.89,14.9,14.9,0,0,1,5.31-6.12,13.42,13.42,0,0,1,7.41-2.21q6.51,0,10.13,4.3t3.62,12.3v2.38H206a11.94,11.94,0,0,0,2.89,8,9.1,9.1,0,0,0,7,3,10,10,0,0,0,5.13-1.23,13,13,0,0,0,3.67-3.28l3.5,2.72Q224,158.1,215.62,158.09Zm-.71-30a7.61,7.61,0,0,0-5.81,2.52,12.21,12.21,0,0,0-2.91,7.06h16.75v-.43a10.83,10.83,0,0,0-2.35-6.75A7.16,7.16,0,0,0,214.91,128.11Z"/><path class="cls-1" d="M249.5,129.16a17.56,17.56,0,0,0-2.81-.21q-5.62,0-7.63,4.79v23.73h-5.72V124h5.56l.09,3.87a8.92,8.92,0,0,1,8-4.49,5.8,5.8,0,0,1,2.53.44Z"/><path class="cls-1" d="M273.1,157.47a12.06,12.06,0,0,1-.81-3.52,12.76,12.76,0,0,1-9.52,4.14,11.78,11.78,0,0,1-8.11-2.8,9,9,0,0,1-3.17-7.09,9.46,9.46,0,0,1,4-8.11q4-2.9,11.18-2.89h5.56v-2.63a6.42,6.42,0,0,0-1.79-4.77,7.2,7.2,0,0,0-5.29-1.78,8.33,8.33,0,0,0-5.13,1.54,4.56,4.56,0,0,0-2.07,3.74h-5.75a7.85,7.85,0,0,1,1.78-4.83,12.09,12.09,0,0,1,4.82-3.7,16.33,16.33,0,0,1,6.69-1.36c3.86,0,6.87,1,9.06,2.89a10.44,10.44,0,0,1,3.4,8v15.39a18.9,18.9,0,0,0,1.17,7.33v.49Zm-9.49-4.35a10,10,0,0,0,5.1-1.4,8.35,8.35,0,0,0,3.49-3.61v-6.86h-4.48q-10.52,0-10.51,6.15a5.22,5.22,0,0,0,1.79,4.2A6.9,6.9,0,0,0,263.61,153.12Z"/><path class="cls-1" d="M292.21,115.93V124h6.24v4.42h-6.24v20.77a4.66,4.66,0,0,0,.83,3,3.53,3.53,0,0,0,2.85,1,13.76,13.76,0,0,0,2.72-.37v4.61a16.7,16.7,0,0,1-4.39.61,7.1,7.1,0,0,1-5.78-2.32,9.94,9.94,0,0,1-1.95-6.58V128.45H280.4V124h6.09v-8.1Z"/><path class="cls-1" d="M302.09,115.16a3.44,3.44,0,0,1,.85-2.35,3.2,3.2,0,0,1,2.52-1,3.24,3.24,0,0,1,2.54,1,3.4,3.4,0,0,1,.86,2.35,3.09,3.09,0,0,1-3.4,3.25,3.25,3.25,0,0,1-2.52-.93A3.33,3.33,0,0,1,302.09,115.16Zm6.19,42.31h-5.72V124h5.72Z"/><path class="cls-1" d="M313.26,140.44a19.76,19.76,0,0,1,1.94-8.84,14.4,14.4,0,0,1,5.37-6,14.58,14.58,0,0,1,7.87-2.14,14.12,14.12,0,0,1,11.05,4.73q4.22,4.73,4.22,12.58v.4a20.05,20.05,0,0,1-1.87,8.77,14.23,14.23,0,0,1-5.35,6,14.83,14.83,0,0,1-8,2.16,14.08,14.08,0,0,1-11-4.73q-4.22-4.73-4.22-12.52Zm5.75.68a14.34,14.34,0,0,0,2.58,8.94,8.28,8.28,0,0,0,6.91,3.36,8.18,8.18,0,0,0,6.92-3.41q2.56-3.42,2.57-9.57a14.27,14.27,0,0,0-2.61-8.91,8.68,8.68,0,0,0-13.77-.05Q319,134.85,319,141.12Z"/><path class="cls-1" d="M353.94,124l.19,4.21a12.17,12.17,0,0,1,10-4.83q10.61,0,10.7,12v22.1h-5.72V135.34q0-3.61-1.65-5.34c-1.09-1.16-2.77-1.73-5.06-1.73a8.24,8.24,0,0,0-4.88,1.48,10.2,10.2,0,0,0-3.28,3.89v23.83h-5.71V124Z"/><path class="cls-1" d="M381.8,153.54h-1.15v3.55H380v-3.55H378.8v-.63h3Zm3.89.48-1.09,3.07h-.4L383.11,154v3.06h-.7v-4.18h.87l1.12,3.1,1.12-3.1h.87v4.18h-.7Z"/><path class="cls-1" d="M233.34,27.36H185.15a10.72,10.72,0,0,0-10.71,10.71V85.7a10.72,10.72,0,0,0,10.71,10.71h48.19A10.73,10.73,0,0,0,244.06,85.7V38.07A10.73,10.73,0,0,0,233.34,27.36Zm0,64.8H185.15a6.47,6.47,0,0,1-6.46-6.46V38.07a6.47,6.47,0,0,1,6.46-6.46h48.19a6.47,6.47,0,0,1,6.47,6.46V85.7A6.47,6.47,0,0,1,233.34,92.16Z"/><path class="cls-2" d="M220.62,44.75c-.3,0-7.38-.61-12.75,4-3.38,2.89-5.29,7.11-5.68,12.57A1.62,1.62,0,0,0,203.81,63h0a24.14,24.14,0,0,0,9-2c4.23-1.91,9.28-6,9.28-14.62A1.63,1.63,0,0,0,220.62,44.75Z"/><rect class="cls-1" x="198.4" y="46.44" width="5.01" height="32.62" rx="2.51"/></svg>