<svg id="Logos" xmlns="http://www.w3.org/2000/svg" viewBox="0 0 132.92 130.97"><defs><style>.cls-1{fill:#fff;}</style></defs><path class="cls-1" d="M109.3,90.29h-1.15v3.54h-.7V90.29H106.3v-.63h3Zm3.89.48-1.09,3.06h-.4l-1.09-3v3h-.7V89.66h.87l1.12,3.1,1.12-3.1h.87v4.17h-.7Z"/><path class="cls-1" d="M92,32.1H43.83A10.73,10.73,0,0,0,33.11,42.81V90.44a10.73,10.73,0,0,0,10.72,10.71H92a10.72,10.72,0,0,0,10.71-10.71V42.81A10.72,10.72,0,0,0,92,32.1Zm0,64.8H43.83a6.47,6.47,0,0,1-6.47-6.46V42.81a6.47,6.47,0,0,1,6.47-6.46H92a6.47,6.47,0,0,1,6.46,6.46V90.44A6.47,6.47,0,0,1,92,96.9Z"/><path class="cls-1" d="M79.3,49.49c-.3,0-7.38-.61-12.75,4-3.39,2.89-5.3,7.11-5.68,12.57a1.62,1.62,0,0,0,1.62,1.73h0a24.14,24.14,0,0,0,9-2c4.23-1.91,9.28-6,9.28-14.63A1.63,1.63,0,0,0,79.3,49.49Z"/><rect class="cls-1" x="57.08" y="51.18" width="5.01" height="32.62" rx="2.51"/></svg>